<?xml version="1.0" standalone="no"?>
<!DOCTYPE svg PUBLIC "-//W3C//DTD SVG 20010904//EN"
 "http://www.w3.org/TR/2001/REC-SVG-20010904/DTD/svg10.dtd">
<svg version="1.0" xmlns="http://www.w3.org/2000/svg"
 width="2000.000000pt" height="2000.000000pt" viewBox="0 0 2000.000000 2000.000000"
 preserveAspectRatio="xMidYMid meet">

<g transform="translate(0.000000,2000.000000) scale(0.100000,-0.100000)"
fill="#000000" stroke="none">
<path d="M9740 18959 c-63 -5 -159 -20 -214 -33 -101 -26 -317 -113 -372 -150
-17 -12 -66 -45 -110 -75 -43 -29 -133 -79 -199 -111 -115 -56 -170 -76 -532
-189 -338 -107 -520 -237 -689 -497 -76 -116 -140 -254 -160 -342 -15 -67 -15
-90 -4 -201 16 -160 6 -246 -61 -511 -63 -250 -95 -419 -114 -604 -33 -321
-20 -394 115 -676 140 -291 139 -288 175 -585 48 -394 69 -480 131 -534 73
-64 134 -49 180 46 29 58 29 58 24 213 -2 85 -5 220 -5 300 0 195 15 240 146
441 55 84 99 156 99 161 0 5 19 48 41 96 101 211 122 318 124 637 1 217 3 247
24 315 61 204 177 339 329 384 30 8 112 21 183 27 166 14 302 1 488 -48 75
-19 193 -50 263 -68 161 -42 297 -60 399 -51 77 6 119 18 310 85 195 68 442
94 764 80 212 -9 284 -22 392 -74 104 -51 174 -119 223 -219 58 -119 71 -200
76 -481 2 -132 8 -274 14 -316 22 -162 84 -343 154 -453 120 -188 162 -363
176 -731 9 -227 18 -283 51 -316 40 -40 91 -14 125 66 15 33 19 90 25 345 8
327 15 378 73 533 14 37 35 113 47 169 12 57 37 153 55 213 45 144 64 256 64
371 0 52 9 160 21 242 34 239 18 355 -76 547 -62 128 -124 217 -284 410 -201
241 -234 288 -346 495 -158 290 -258 394 -454 469 -123 47 -178 54 -347 47
-113 -5 -154 -3 -167 6 -9 7 -28 45 -41 84 -40 119 -103 202 -212 280 -210
150 -554 227 -904 203z"/>
<path d="M5341 16175 c-11 -15 -23 -42 -27 -60 -7 -39 9 -122 32 -167 16 -30
15 -31 -21 -62 -94 -79 -140 -85 -179 -26 -30 45 -79 80 -113 80 -30 0 -63
-45 -63 -87 0 -41 45 -92 82 -95 13 0 32 -2 43 -3 11 -1 26 -3 33 -4 29 -3 58
-111 96 -361 33 -210 69 -387 84 -402 18 -18 42 -1 42 29 0 15 -13 96 -29 178
-17 83 -39 210 -51 284 -12 73 -30 161 -41 195 -10 33 -19 66 -19 73 0 6 21
18 46 27 25 8 67 33 93 55 l48 41 19 -21 c25 -28 90 -65 140 -79 l40 -12 -23
-82 c-13 -44 -35 -151 -48 -236 -14 -85 -33 -198 -44 -250 -28 -134 -31 -176
-16 -196 19 -26 43 -10 49 33 3 21 17 99 31 173 14 74 32 182 40 240 26 186
62 309 90 311 8 1 24 3 35 4 11 1 29 3 39 4 11 0 33 13 50 27 26 22 31 33 31
70 0 49 -25 84 -61 84 -33 0 -83 -35 -114 -80 -19 -28 -35 -40 -51 -40 -35 0
-106 36 -142 71 -30 30 -31 31 -16 71 20 56 18 155 -4 198 -23 47 -70 54 -101
15z m59 -80 c5 -44 -1 -96 -9 -90 -14 8 -24 89 -16 116 6 17 9 19 15 8 5 -8 9
-23 10 -34z m-325 -245 c33 -34 29 -46 -12 -33 -20 7 -29 17 -31 36 -4 35 8
34 43 -3z m693 3 c-2 -19 -11 -29 -31 -36 -41 -13 -45 -1 -12 33 35 37 47 38
43 3z"/>
<path d="M8965 15995 c-106 -29 -170 -59 -216 -102 -63 -59 -76 -94 -45 -129
28 -33 50 -33 156 0 51 17 119 30 170 33 77 5 93 2 174 -26 111 -39 167 -40
201 -6 31 30 32 62 3 105 -75 109 -284 168 -443 125z"/>
<path d="M10865 15994 c-184 -45 -324 -176 -256 -238 27 -25 64 -23 161 9 49
15 119 29 166 32 74 5 91 3 173 -26 108 -37 158 -39 195 -10 65 51 7 148 -126
209 -63 30 -85 34 -163 37 -55 1 -114 -3 -150 -13z"/>
<path d="M10182 15353 c-4 -10 -7 -101 -6 -203 l0 -185 72 -211 c87 -255 92
-303 40 -359 -42 -45 -109 -64 -165 -47 -21 6 -64 27 -97 47 -66 40 -86 43
-86 16 0 -36 157 -121 224 -121 48 0 122 30 153 62 75 78 72 135 -16 398 -79
234 -96 340 -81 510 5 52 6 98 4 102 -9 14 -35 8 -42 -9z"/>
<path d="M8982 15214 c-124 -62 -169 -212 -96 -316 16 -23 49 -52 74 -65 38
-21 56 -24 117 -21 86 4 116 22 152 93 38 73 40 151 6 220 -53 109 -148 143
-253 89z"/>
<path d="M10865 15219 c-109 -54 -161 -159 -131 -261 27 -93 106 -148 211
-148 87 0 137 35 171 120 58 144 -32 311 -168 310 -24 -1 -61 -10 -83 -21z"/>
<path d="M7296 14679 c-31 -24 -35 -59 -7 -59 10 0 24 7 31 15 17 20 53 19 98
-4 50 -25 66 -46 86 -108 16 -49 16 -57 2 -107 -9 -30 -16 -64 -16 -76 0 -44
33 -91 94 -135 33 -24 67 -53 74 -64 14 -24 40 -28 48 -7 9 23 -25 65 -86 106
-78 53 -89 81 -66 169 17 64 16 68 -4 133 -15 49 -29 74 -57 98 -70 62 -148
77 -197 39z"/>
<path d="M12521 14678 c-42 -12 -117 -62 -131 -87 -26 -50 -42 -117 -36 -161
21 -164 22 -147 -18 -183 -145 -126 -156 -140 -119 -154 10 -4 23 2 37 19 12
14 47 44 78 67 88 63 106 117 73 224 -13 44 -13 52 8 110 20 56 27 65 77 94
63 38 83 40 110 13 26 -26 50 -26 50 0 0 21 -36 60 -56 60 -7 0 -18 2 -26 4
-7 2 -28 0 -47 -6z"/>
<path d="M6011 12240 c-89 -24 -215 -89 -219 -114 -7 -33 14 -40 47 -17 51 37
154 79 227 94 56 11 69 17 69 33 0 26 -34 28 -124 4z"/>
<path d="M6860 11724 c0 -9 12 -30 27 -48 67 -79 108 -237 108 -421 0 -97 -4
-134 -22 -191 -26 -82 -77 -154 -126 -178 -56 -26 -67 -22 -67 24 0 55 -28
187 -47 225 -37 70 -162 236 -233 306 -133 133 -253 171 -469 149 -102 -11
-141 -22 -141 -40 0 -19 24 -21 134 -9 265 29 389 -35 577 -298 97 -137 120
-193 126 -318 12 -203 -81 -382 -235 -452 -75 -35 -136 -36 -179 -4 -26 20
-33 32 -33 60 0 54 -27 168 -50 216 -57 118 -330 341 -379 310 -25 -15 -7 -36
62 -72 89 -46 233 -184 270 -258 45 -91 59 -209 36 -317 -65 -310 -348 -357
-349 -58 0 87 -12 111 -84 180 -54 52 -72 63 -86 55 -20 -13 -8 -41 30 -70 22
-16 53 -50 70 -75 28 -40 30 -50 25 -95 -17 -131 67 -245 180 -245 113 0 216
111 256 275 7 28 13 51 15 53 1 2 14 -4 28 -14 21 -13 42 -16 101 -12 l75 5
-17 -26 c-54 -81 -85 -142 -113 -219 -33 -90 -35 -115 -9 -120 11 -2 26 24 54
99 44 116 142 270 234 367 70 73 117 162 134 250 l11 60 42 7 c158 23 255 250
225 523 -19 176 -51 276 -113 355 -30 38 -68 50 -68 21z"/>
<path d="M14347 9758 c-8 -13 -30 -50 -49 -83 -19 -33 -63 -104 -97 -157 -63
-100 -151 -266 -151 -286 0 -15 34 -32 46 -24 6 4 24 37 41 74 17 37 72 131
121 210 125 201 153 253 146 272 -9 23 -41 20 -57 -6z"/>
<path d="M6870 9339 c0 -13 9 -32 19 -43 34 -37 74 -208 79 -337 6 -146 -8
-218 -94 -482 -35 -109 -73 -242 -84 -296 -29 -141 -27 -326 5 -551 64 -448
59 -498 -78 -850 -58 -149 -82 -251 -118 -495 -67 -454 -149 -908 -290 -1600
-50 -242 -117 -577 -150 -745 -33 -168 -76 -386 -96 -485 -45 -220 -46 -239
-16 -243 31 -4 34 7 83 260 23 117 117 593 210 1058 209 1041 249 1262 320
1742 37 256 62 355 135 539 88 222 99 270 98 434 0 104 -8 200 -32 370 -28
197 -32 249 -28 365 5 158 18 220 97 470 100 312 117 410 100 558 -12 105 -57
275 -85 316 -26 40 -75 49 -75 15z"/>
<path d="M13926 9032 c-12 -20 -121 -394 -161 -552 -135 -544 -185 -1004 -171
-1605 9 -411 20 -569 91 -1330 97 -1031 148 -1867 195 -3225 5 -151 18 -383
30 -515 11 -132 23 -314 28 -404 6 -141 9 -165 25 -175 14 -8 20 -8 27 4 14
22 12 208 -5 415 -30 366 -44 628 -55 960 -27 900 -96 2043 -166 2765 -73 757
-90 978 -105 1377 -11 297 -2 671 21 903 37 371 119 762 250 1194 28 93 49
175 46 183 -6 14 -42 18 -50 5z"/>
<path d="M5280 8315 c-14 -17 -14 -17 64 -120 256 -341 625 -764 658 -753 6 2
16 11 22 20 8 13 -7 35 -80 110 -136 143 -425 489 -583 701 -45 59 -60 67 -81
42z"/>
<path d="M5099 6924 c-22 -26 15 -47 142 -80 107 -27 126 -29 304 -29 209 1
249 9 243 48 -2 18 -9 22 -38 20 -267 -15 -290 -15 -386 1 -55 9 -129 25 -164
36 -79 24 -84 24 -101 4z"/>
<path d="M8314 6687 c-6 -18 21 -151 53 -252 14 -44 67 -192 118 -330 138
-368 225 -667 275 -944 11 -63 25 -118 32 -122 13 -8 48 6 48 20 0 33 -49 267
-85 406 -58 223 -118 408 -225 695 -89 237 -129 365 -149 474 -6 33 -11 61
-11 63 0 10 -52 1 -56 -10z"/>
<path d="M8734 4681 c-66 -17 -110 -66 -126 -144 -11 -50 -10 -58 13 -103 30
-61 89 -104 153 -111 60 -7 98 10 131 57 52 76 68 156 41 209 -17 32 -80 91
-99 91 -7 1 -28 2 -47 5 -19 2 -49 0 -66 -4z"/>
<path d="M15444 3112 c-6 -4 -27 -38 -48 -77 -110 -203 -297 -426 -524 -625
-53 -46 -72 -69 -70 -84 2 -12 11 -22 20 -24 37 -7 357 309 482 477 72 96 172
263 176 292 5 35 -14 56 -36 41z"/>
<path d="M8825 2796 c-66 -30 -105 -94 -105 -172 0 -73 46 -137 122 -168 75
-32 137 -14 179 51 74 114 66 211 -23 276 -35 26 -130 33 -173 13z"/>
</g>
</svg>
